<svg xmlns="http://www.w3.org/2000/svg" version="1.1" xmlns:xlink="http://www.w3.org/1999/xlink" xmlns:svgjs="http://svgjs.dev/svgjs" width="2000" height="161" viewBox="0 0 2000 161"><g transform="matrix(1,0,0,1,-1.2121212121212466,1.11501401723595)"><svg viewBox="0 0 396 32" data-background-color="#ffffff" preserveAspectRatio="xMidYMid meet" height="161" width="2000" xmlns="http://www.w3.org/2000/svg" xmlns:xlink="http://www.w3.org/1999/xlink"><g id="tight-bounds" transform="matrix(1,0,0,1,0.2400000000000091,-0.22161769286677213)"><svg viewBox="0 0 395.52 32.443235385733566" height="32.443235385733566" width="395.52"><g><svg viewBox="0 0 395.52 32.443235385733566" height="32.443235385733566" width="395.52"><g><svg viewBox="0 0 395.52 32.443235385733566" height="32.443235385733566" width="395.52"><g id="textblocktransform"><svg viewBox="0 0 395.52 32.443235385733566" height="32.443235385733566" width="395.52" id="textblock"><g><svg viewBox="0 0 395.52 32.443235385733566" height="32.443235385733566" width="395.52"><g transform="matrix(1,0,0,1,0,0)"><svg width="395.52" viewBox="1.65 -39 481.52000000000004 39.5" height="32.443235385733566" data-palette-color="#363636"><path d="M20.9 0L1.65 0 1.65-2Q3.35-2.05 4.38-2.3 5.4-2.55 5.98-3.15 6.55-3.75 6.75-4.85 6.95-5.95 6.95-7.7L6.95-7.7 6.95-30.8Q6.95-32.55 6.8-33.63 6.65-34.7 6.18-35.33 5.7-35.95 4.88-36.18 4.05-36.4 2.7-36.5L2.7-36.5 2.7-38.5 18.75-38.5Q26.3-38.5 30.38-36.08 34.45-33.65 34.45-29.15L34.45-29.15Q34.45-23.2 25.9-20.75L25.9-20.75 25.9-20.55Q28.65-20.55 30.88-19.78 33.1-19 34.65-17.6 36.2-16.2 37.05-14.3 37.9-12.4 37.9-10.15L37.9-10.15Q37.9-7.6 36.68-5.7 35.45-3.8 33.15-2.5L33.15-2.5Q28.7 0 20.9 0L20.9 0ZM21.25-3.05L21.25-3.05Q29.3-3.05 29.3-10.3L29.3-10.3Q29.3-14.75 26.4-16.8L26.4-16.8Q24.9-17.85 22.53-18.3 20.15-18.75 16.7-18.75L16.7-18.75 14.3-18.75 14.3-8.75Q14.3-5.65 15.9-4.35 17.5-3.05 21.25-3.05ZM14.3-21.75L17.25-21.75Q19.5-21.75 21.15-22.18 22.8-22.6 23.95-23.4L23.95-23.4Q26.35-25.05 26.35-28.55L26.35-28.55Q26.35-32.2 24.55-33.83 22.75-35.45 18.75-35.45L18.75-35.45 15.2-35.45Q14.3-35.45 14.3-34.6L14.3-34.6 14.3-21.75ZM65.3-8.65L64.15-11.65 50-11.65Q47.65-6.35 47.65-4.3L47.65-4.3Q47.65-2.8 48.77-2.4 49.9-2 52.15-2L52.15-2 52.15 0 38.45 0 38.45-2Q39.65-2.15 40.52-2.4 41.4-2.65 42.07-3.1 42.75-3.55 43.25-4.28 43.75-5 44.2-6.05L44.2-6.05 57.35-39 61.05-39 73-9.8Q74.05-7.25 74.77-5.8 75.5-4.35 76.32-3.58 77.15-2.8 78.22-2.5 79.3-2.2 81-2.05L81-2.05 81 0 62.1 0 62.1-2.05Q64.5-2.15 65.55-2.55 66.6-2.95 66.6-4.15L66.6-4.15Q66.6-4.85 66.25-5.95 65.9-7.05 65.3-8.65L65.3-8.65ZM57.1-29.8L51.15-14.65 63.05-14.65 57.3-29.8 57.1-29.8ZM91.25-13.8L80.9-32.2Q80.15-33.5 79.52-34.35 78.9-35.2 78.25-35.68 77.6-36.15 76.85-36.33 76.1-36.5 75.15-36.5L75.15-36.5 75.15-38.5 91.95-38.5 91.95-36.5Q89.85-36.5 89-36.1 88.15-35.7 88.15-34.9L88.15-34.9Q88.15-34.4 88.45-33.7 88.75-33 89.4-31.8L89.4-31.8 96.55-18.15 96.75-18.15 103.05-28.65Q104.7-31.45 105.35-32.83 106-34.2 106-35L106-35Q106-35.85 105.22-36.18 104.45-36.5 102.35-36.5L102.35-36.5 102.35-38.5 114.9-38.5 114.9-36.5Q113.8-36.5 112.9-36.15 112-35.8 111.02-34.77 110.05-33.75 108.82-31.93 107.6-30.1 105.9-27.15L105.9-27.15 98.6-14.65 98.6-9.55Q98.6-7.05 98.82-5.55 99.05-4.05 99.62-3.28 100.2-2.5 101.2-2.25 102.2-2 103.8-2L103.8-2 103.8 0 86 0 86-2Q87.55-2 88.57-2.25 89.6-2.5 90.2-3.25 90.8-4 91.02-5.43 91.25-6.85 91.25-9.2L91.25-9.2 91.25-13.8ZM151.69-26.1L151.69-15.5Q151.69-11.25 150.77-8.22 149.84-5.2 147.89-3.25 145.94-1.3 142.87-0.4 139.79 0.5 135.49 0.5L135.49 0.5Q127.44 0.5 123.72-2.88 119.99-6.25 119.99-13.65L119.99-13.65 119.99-27.35Q119.99-29.3 119.94-30.63 119.89-31.95 119.79-32.85 119.69-33.75 119.52-34.33 119.34-34.9 119.09-35.3L119.09-35.3Q118.64-36 117.79-36.25 116.94-36.5 115.19-36.5L115.19-36.5 115.19-38.5 133.14-38.5 133.14-36.5Q131.04-36.5 130.04-36.27 129.04-36.05 128.49-35.4L128.49-35.4Q128.14-35 127.92-34.43 127.69-33.85 127.57-32.93 127.44-32 127.39-30.65 127.34-29.3 127.34-27.35L127.34-27.35 127.34-14.25Q127.34-8.55 129.77-5.83 132.19-3.1 137.24-3.1L137.24-3.1Q147.54-3.1 147.54-14.55L147.54-14.55 147.54-26.1Q147.54-28.2 147.47-29.7 147.39-31.2 147.22-32.25 147.04-33.3 146.77-34 146.49-34.7 146.09-35.15L146.09-35.15Q145.39-35.85 144.29-36.18 143.19-36.5 141.24-36.5L141.24-36.5 141.24-38.5 157.44-38.5 157.44-36.5Q155.59-36.5 154.59-36.23 153.59-35.95 153.04-35.25L153.04-35.25Q152.64-34.8 152.39-34.08 152.14-33.35 151.99-32.27 151.84-31.2 151.77-29.7 151.69-28.2 151.69-26.1L151.69-26.1ZM205.89-28.85L205.89-28.85Q205.89-24.7 203.49-21.9 201.09-19.1 195.84-18.15L195.84-18.15 207.44-4.85Q208.64-3.45 210.29-2.73 211.94-2 213.64-2L213.64-2 213.64 0 201.79 0 189.39-15.2Q188.14-16.7 187.21-17.23 186.29-17.75 185.49-17.75L185.49-17.75 185.49-7.95Q185.49-6.1 185.74-4.93 185.99-3.75 186.74-3.1 187.49-2.45 188.91-2.23 190.34-2 192.74-2L192.74-2 192.74 0 172.89 0 172.89-2Q174.54-2 175.56-2.23 176.59-2.45 177.16-3.08 177.74-3.7 177.94-4.83 178.14-5.95 178.14-7.7L178.14-7.7 178.14-30.8Q178.14-32.55 177.99-33.63 177.84-34.7 177.34-35.33 176.84-35.95 175.91-36.18 174.99-36.4 173.44-36.5L173.44-36.5 173.44-38.5 190.74-38.5Q197.99-38.5 201.94-35.95 205.89-33.4 205.89-28.85ZM185.49-34.85L185.49-20.75 188.74-20.75Q193.44-20.75 195.76-22.58 198.09-24.4 198.09-28.6L198.09-28.6Q198.09-31.8 196.14-33.75 194.19-35.7 190.74-35.7L190.74-35.7 186.39-35.7Q185.49-35.7 185.49-34.85L185.49-34.85ZM238.09-8.65L236.94-11.65 222.79-11.65Q220.44-6.35 220.44-4.3L220.44-4.3Q220.44-2.8 221.56-2.4 222.69-2 224.94-2L224.94-2 224.94 0 211.24 0 211.24-2Q212.44-2.15 213.31-2.4 214.19-2.65 214.86-3.1 215.54-3.55 216.04-4.28 216.54-5 216.99-6.05L216.99-6.05 230.14-39 233.84-39 245.79-9.8Q246.84-7.25 247.56-5.8 248.29-4.35 249.11-3.58 249.94-2.8 251.01-2.5 252.09-2.2 253.79-2.05L253.79-2.05 253.79 0 234.89 0 234.89-2.05Q237.29-2.15 238.34-2.55 239.39-2.95 239.39-4.15L239.39-4.15Q239.39-4.85 239.04-5.95 238.69-7.05 238.09-8.65L238.09-8.65ZM229.89-29.8L223.94-14.65 235.84-14.65 230.09-29.8 229.89-29.8ZM281.18-9.35L281.38-9.35 292.93-38.5 307.53-38.5 307.53-36.5Q305.88-36.5 304.86-36.18 303.83-35.85 303.28-35 302.73-34.15 302.56-32.68 302.38-31.2 302.38-28.95L302.38-28.95 302.38-9.55Q302.38-7.05 302.58-5.6 302.78-4.15 303.38-3.35 303.98-2.55 305.11-2.3 306.23-2.05 308.08-2L308.08-2 308.08 0 289.28 0 289.28-2Q291.13-2.05 292.26-2.33 293.38-2.6 294.01-3.35 294.63-4.1 294.83-5.48 295.03-6.85 295.03-9.2L295.03-9.2 295.03-32.6 294.78-32.6 281.33 0.5 277.63 0.5 263.73-32.6 263.53-32.6 263.53-9.55Q263.53-7.05 263.73-5.6 263.93-4.15 264.53-3.35 265.13-2.55 266.26-2.3 267.38-2.05 269.23-2L269.23-2 269.23 0 253.83 0 253.83-2Q255.68-2.05 256.83-2.33 257.98-2.6 258.61-3.35 259.23-4.1 259.43-5.48 259.63-6.85 259.63-9.2L259.63-9.2 259.63-29.3Q259.63-31.4 259.43-32.8 259.23-34.2 258.68-35.02 258.13-35.85 257.11-36.18 256.08-36.5 254.38-36.5L254.38-36.5 254.38-38.5 269.53-38.5 281.18-9.35ZM335.78-8.65L334.63-11.65 320.48-11.65Q318.13-6.35 318.13-4.3L318.13-4.3Q318.13-2.8 319.26-2.4 320.38-2 322.63-2L322.63-2 322.63 0 308.93 0 308.93-2Q310.13-2.15 311.01-2.4 311.88-2.65 312.56-3.1 313.23-3.55 313.73-4.28 314.23-5 314.68-6.05L314.68-6.05 327.83-39 331.53-39 343.48-9.8Q344.53-7.25 345.26-5.8 345.98-4.35 346.81-3.58 347.63-2.8 348.71-2.5 349.78-2.2 351.48-2.05L351.48-2.05 351.48 0 332.58 0 332.58-2.05Q334.98-2.15 336.03-2.55 337.08-2.95 337.08-4.15L337.08-4.15Q337.08-4.85 336.73-5.95 336.38-7.05 335.78-8.65L335.78-8.65ZM327.58-29.8L321.63-14.65 333.53-14.65 327.78-29.8 327.58-29.8ZM390.23 0.5L383.53 0.5 361.38-31.05 361.18-31.05 361.18-9.55Q361.18-7.05 361.35-5.6 361.53-4.15 362.1-3.35 362.68-2.55 363.7-2.3 364.73-2.05 366.38-2L366.38-2 366.38 0 351.53 0 351.53-2Q353.38-2.05 354.5-2.33 355.63-2.6 356.25-3.35 356.88-4.1 357.08-5.48 357.28-6.85 357.28-9.2L357.28-9.2 357.28-29.3Q357.28-31.4 357.08-32.77 356.88-34.15 356.33-34.95 355.78-35.75 354.75-36.08 353.73-36.4 352.03-36.5L352.03-36.5 352.03-38.5 365.98-38.5 386.13-9.6 386.33-9.6 386.33-28.95Q386.33-31.4 386.15-32.88 385.98-34.35 385.4-35.15 384.83-35.95 383.8-36.2 382.78-36.45 381.13-36.5L381.13-36.5 381.13-38.5 395.98-38.5 395.98-36.5Q394.13-36.45 393-36.18 391.88-35.9 391.25-35.15 390.63-34.4 390.43-33 390.23-31.6 390.23-29.3L390.23-29.3 390.23 0.5ZM419.63 0L398.78 0 398.78-2Q400.43-2.05 401.45-2.27 402.48-2.5 403.05-3.13 403.63-3.75 403.83-4.83 404.03-5.9 404.03-7.7L404.03-7.7 404.03-30.8Q404.03-32.55 403.88-33.63 403.73-34.7 403.23-35.33 402.73-35.95 401.85-36.18 400.98-36.4 399.58-36.5L399.58-36.5 399.58-38.5 418.58-38.5Q423.38-38.5 427.43-37 431.48-35.5 434.43-32.85 437.38-30.2 439.03-26.55 440.68-22.9 440.68-18.6L440.68-18.6Q440.68-14.5 439.13-11.08 437.58-7.65 434.8-5.2 432.03-2.75 428.15-1.38 424.28 0 419.63 0L419.63 0ZM418.48-35.45L412.23-35.45Q411.38-35.45 411.38-34.6L411.38-34.6 411.38-8.75Q411.38-5.85 413.18-4.45 414.98-3.05 418.73-3.05L418.73-3.05Q425.28-3.05 428.8-7 432.33-10.95 432.33-18.5L432.33-18.5Q432.33-22.5 431.38-25.65 430.43-28.8 428.63-30.98 426.83-33.15 424.25-34.3 421.68-35.45 418.48-35.45L418.48-35.45ZM467.47-8.65L466.32-11.65 452.17-11.65Q449.82-6.35 449.82-4.3L449.82-4.3Q449.82-2.8 450.95-2.4 452.07-2 454.32-2L454.32-2 454.32 0 440.62 0 440.62-2Q441.82-2.15 442.7-2.4 443.57-2.65 444.25-3.1 444.92-3.55 445.42-4.28 445.92-5 446.37-6.05L446.37-6.05 459.52-39 463.22-39 475.17-9.8Q476.22-7.25 476.95-5.8 477.67-4.35 478.5-3.58 479.32-2.8 480.4-2.5 481.47-2.2 483.17-2.05L483.17-2.05 483.17 0 464.27 0 464.27-2.05Q466.67-2.15 467.72-2.55 468.77-2.95 468.77-4.15L468.77-4.15Q468.77-4.85 468.42-5.95 468.07-7.05 467.47-8.65L467.47-8.65ZM459.27-29.8L453.32-14.65 465.22-14.65 459.47-29.8 459.27-29.8Z" opacity="1" transform="matrix(1,0,0,1,0,0)" fill="#363636" class="wordmark-text-0" data-fill-palette-color="primary" id="text-0"></path></svg></g></svg></g></svg></g></svg></g></svg></g><defs></defs></svg><rect width="395.52" height="32.443235385733566" fill="none" stroke="none" visibility="hidden"></rect></g></svg></g></svg>